<?xml version="1.0" encoding="utf-8"?>
<svg version="1.1" id="Layer_1" xmlns="http://www.w3.org/2000/svg" xmlns:xlink="http://www.w3.org/1999/xlink" x="0px" y="0px"
	 viewBox="0 0 854 164.47" style="enable-background:new 0 0 854 164.47;" xml:space="preserve">
<path style="fill:#B7B7B7;" d="M192.643,0.44C179.34,0.194,121.613,0.03,87.946,0.03H0v31.614c70.783,0,154.788-0.164,191.575,0.411
	c6.569,0.082,13.056,0.739,18.23,5.338c4.845,4.27,6.487,11.003,4.352,16.834c-3.449,9.443-13.056,11.743-22.582,11.907
	c-14.617,0.246-54.607,0.328-84.497,0.328c-73.329,0.082-41.55,0-107.078,0v31.532c70.783,0,154.952-0.164,191.575,0.411
	c11.414,0.164,23.485,4.106,23.485,16.916s-12.071,16.916-23.485,17.08C155.034,132.974,70.783,132.81,0,132.81v31.614
	c71.03,0,163.984,0.246,192.643-0.411c15.109-0.328,37.527-4.188,50.501-23.896c12.235-18.476,9.279-42.536-6.816-57.891
	c16.095-15.438,19.051-39.498,6.816-57.891C230.087,4.628,207.752,0.851,192.643,0.44z M756.94,0.916
	c-18.722-0.411-47.052-0.657-72.015-0.739c-60.93-0.246-24.306-0.164-82.362-0.164V31.71c61.833,0,105.108-0.493,152.817,0.821
	c14.042,0.411,29.069,1.889,42.618,11.25c12.81,8.868,20.447,23.074,20.447,38.348s-7.39,29.479-20.2,38.43
	c-13.549,9.361-28.576,10.839-42.618,11.25c-47.709,1.314-91.066,0.821-152.817,0.821l-0.246,31.697
	c62.161,0,106.832,0.246,154.377-0.903c19.051-0.411,42.454-2.628,64.132-18.148C841.601,130.577,854,107.502,854,82.046
	s-12.399-48.53-32.928-63.229v0.246C799.475,3.544,775.99,1.327,756.94,0.916z M325.259,48.806c-0.082-15.273,0-33.339,0-48.777
	h-36.541c0,15.602-0.328,47.298,0.328,62.654c1.232,29.726,10.921,39.005,41.304,40.072c21.104,0.739,37.773,0.493,66.924,0.411
	V71.306c-23.321,0-32.846,0-50.09-0.246C330.597,70.731,325.341,65.311,325.259,48.806z M460.421,71.306
	c17.08,0,37.937-0.082,45.82-0.246c16.587-0.328,21.843-5.584,21.925-21.678h0.246V0.03h36.459v47.955
	c-0.082,5.584-0.164,10.675-0.328,14.699c-1.232,29.972-11.003,39.087-43.275,40.072c-10.511,0.411-38.43,0.411-60.765,0.411h-4.352
	v61.258h-42.946V71.306H460.421z"/>
</svg>
