<?xml version="1.0" encoding="utf-8"?>
<svg version="1.1" id="Layer_1" xmlns="http://www.w3.org/2000/svg" xmlns:xlink="http://www.w3.org/1999/xlink" x="0px" y="0px"
	 viewBox="0 0 1257.134 222.071" style="enable-background:new 0 0 1257.134 222.071;" xml:space="preserve">
<g>
	<g>
		<g>
			<path style="fill:#B7B7B7;" d="M330.745,115.761H184.272c-5.219,0-9.45,4.231-9.45,9.45v87.411c0,5.219,4.231,9.45,9.45,9.45
				h146.473c5.219,0,9.45-4.231,9.45-9.45V125.21C340.194,119.991,335.964,115.761,330.745,115.761z"/>
			<path style="fill:#B7B7B7;" d="M155.923,115.761H9.45c-5.219,0-9.45,4.231-9.45,9.45v59.061c0,20.876,16.923,37.8,37.799,37.8
				h118.123c5.219,0,9.45-4.231,9.45-9.45V125.21C165.373,119.991,161.142,115.761,155.923,115.761z"/>
			<path style="fill:#B7B7B7;" d="M486.667,0H359.094c-5.219,0-9.45,4.231-9.45,9.45v87.411c0,5.219,4.231,9.45,9.45,9.45h146.473
				c5.219,0,9.45-4.231,9.45-9.45V28.35C515.017,12.693,502.324,0,486.667,0z"/>
		</g>
		<g>
			<path style="fill:#B7B7B7;" d="M505.567,115.761H359.094c-5.219,0-9.45,4.231-9.45,9.45v87.411c0,5.219,4.231,9.45,9.45,9.45
				h118.123c20.876,0,37.8-16.923,37.8-37.8V125.21C515.017,119.991,510.786,115.761,505.567,115.761z"/>
			<path style="fill:#B7B7B7;" d="M330.745,0H184.272c-5.219,0-9.45,4.231-9.45,9.45v87.411c0,5.219,4.231,9.45,9.45,9.45h146.473
				c5.219,0,9.45-4.231,9.45-9.45V9.45C340.194,4.231,335.964,0,330.745,0z"/>
			<path style="fill:#B7B7B7;" d="M155.923,0H28.35C12.692,0,0,12.693,0,28.35v68.512c0,5.219,4.231,9.45,9.45,9.45h146.473
				c5.219,0,9.45-4.231,9.45-9.45V9.45C165.373,4.231,161.142,0,155.923,0z"/>
		</g>
	</g>
	<g>
		<g>
			<path style="fill:#B7B7B7;" d="M586.906,161.471c-9.11,0-16.518-7.409-16.518-16.518V78.156c0-9.11,7.409-16.518,16.518-16.518
				h114.517v17.085H589.232v65.561h93.344v-24.185h-67.5V102.91h86.347v58.561H586.906z"/>
			<path style="fill:#B7B7B7;" d="M746.195,161.471c-9.11,0-16.518-7.409-16.518-16.518V61.638h127.371v17.085H748.521v24.187
				h105.52v17.188h-105.52v24.185h108.526v17.187H746.195z"/>
			<path style="fill:#B7B7B7;" d="M1053.358,161.471c-9.114,0-16.529-7.415-16.529-16.529V61.537h18.845v82.747h93.872v17.187
				H1053.358z"/>
			<path style="fill:#B7B7B7;" d="M899.45,161.471c-9.11,0-16.519-7.409-16.519-16.518V61.638h127.374v17.085h-108.53v24.187
				h105.524v17.188H901.774v24.185h108.53v17.187H899.45z"/>
			<polygon style="fill:#B7B7B7;" points="1176.593,161.471 1176.593,123.232 1114.898,61.537 1139.207,61.537 1186.017,108.344
				1232.822,61.537 1257.134,61.537 1195.438,123.232 1195.438,161.471 			"/>
		</g>
	</g>
</g>
</svg>
