<?xml version="1.0" encoding="utf-8"?>
<svg version="1.1" id="Layer_1" xmlns="http://www.w3.org/2000/svg" xmlns:xlink="http://www.w3.org/1999/xlink" x="0px" y="0px"
	 viewBox="0 0 1403.747 895.989" style="enable-background:new 0 0 1403.747 895.989;" xml:space="preserve">
<g>
	<path style="fill:#B7B7B7;" d="M206.251,789.216c-4.549,0-7.257-3.183-7.257-6.815l-0.005-49.729c0-3.797,2.599-6.842,6.727-6.842
		l201.669,0.007c5.885,0,10.571,4.529,10.589,10.27l0.427,132.289c0.044,13.76-9.135,27.431-24.274,27.433l-236.886,0.027
		c-20.849,0.002-40.183-1.311-60.425-3.932c-56.569-7.327-86.222-35.055-93.923-92.147c-5.035-37.323-4.682-88.61,10.745-123.585
		c16.309-36.974,51.204-49.829,89.128-54.023c20.894-2.311,40.757-3.251,62.2-3.257l246.793-0.071
		c4.119-0.001,6.517,3.315,6.517,6.804l-0.001,49.787c0,3.588-2.378,6.78-6.54,6.781l-243.019,0.078
		c-19.627,0.006-44.824,0.964-63.044,6.485c-15.291,4.633-25.769,16.497-29.007,32.486c-4.768,23.548-4.677,48.109-0.18,71.682
		c3.4,17.822,15.364,30.101,32.874,34.284c16.742,4,33.363,5.149,51.163,5.161l179.565,0.12c2.397,0.002,4.792-2.899,4.792-4.781
		l0.009-33.375c0.001-2.224-2.301-5.136-4.875-5.136L206.251,789.216z"/>
	<path style="fill:#B7B7B7;" d="M1330.669,722.747c0-1.233-0.88-2.803-1.389-3.187c-0.509-0.384-2.471,0.765-2.804,1.39
		l-90.63,170.217c-1.665,3.128-5.266,4.804-8.532,4.803l-65.263-0.019c-3.412-0.001-6.663-1.272-8.609-4.926
		c-8.904-16.718-90.106-170.094-92.206-171.768c-0.466-0.371-2.534,1.31-2.534,2.303l-0.018,167.225c0,4.32-2.339,7.139-5.755,7.142
		l-60.755,0.048c-3.716,0.003-6.562-2.664-6.562-6.811l0-262.162c0-4.814,3.086-8.139,7.759-8.141l87.101-0.046
		c4.178,0.138,7.226,1.705,9.37,5.371l104.817,196.544l105.255-197.241c1.526-2.86,4.801-4.165,7.829-4.674l88.251,0.046
		c4.665,0.002,7.755,3.328,7.755,8.141l0,262.162c0,4.155-2.848,6.806-6.558,6.804l-60.78-0.03
		c-3.312-0.002-5.741-3.331-5.741-6.706L1330.669,722.747z"/>
	<path style="fill:#B7B7B7;" d="M948.707,618.837c1.605,0,4.22,1.23,4.653,2.13c0.519,1.081,0.8,3.49,0.097,5.113L838.934,890.349
		c-1.277,2.948-4.719,5.576-7.674,5.579l-61.949,0.06c-4.016,0.004-8.19-1.55-9.692-5.69l-58.427-161.066l-58.172,160.622
		c-1.473,3.364-4.503,6.09-8.196,6.091l-63.007,0.014c-3.633,0.001-6.955-2.447-8.49-5.99L448.451,624.852
		c-1.161-2.679,2.149-5.995,4.25-5.996l64.076-0.039c3.919,0.569,6.801,2.57,8.489,6.298l74.405,170.759l61.532-170.147
		c1.409-3.896,4.574-6.854,8.827-6.858l60.732-0.056c4.538-0.073,8.061,1.721,10.105,5.924l61.858,171.112l75.019-171.961
		c1.354-3.103,5.389-5.049,8.479-5.049L948.707,618.837z"/>
	<path style="fill:#B7B7B7;" d="M930.789,448.43c-102.449,52.198-233.619,61.183-345.079,38.726
		c-69.773-14.058-142.376-44.943-192.427-96.296c-23.069-23.669-40.936-50.986-50.961-82.619
		c-19.059-60.136-7.57-125.428,29.15-176.432c16.401-22.781,36.052-41.556,58.914-57.848
		c99.488-70.896,246.017-84.412,363.655-67.27c91.22,13.293,191.024,52.884,243.379,132.603
		c33.041,50.311,42.331,113.085,23.548,170.487C1040.427,372.548,988.319,419.118,930.789,448.43z M954.315,404.894
		c56.871-36.248,94.279-91.38,92.275-160.837c-1.875-64.966-35.563-118.301-86.217-156.855
		c-48.255-36.729-108.835-58.685-168.543-68.7c-90.878-15.243-192.618-7.919-277.997,28.296
		c-47.944,20.336-92.443,51.006-122.418,94.042c-45.206,64.904-47.305,151.255,2.676,214.715
		c51.151,64.946,141.212,94.125,220.782,103.957C721.883,472.733,860.925,464.417,954.315,404.894z"/>
	<path style="fill:#B7B7B7;" d="M884.422,92.472c-80.559-39.069-183.815-45.379-270.943-29.955
		c-56.835,10.062-118.072,33.67-158.607,75.479c-16.755,17.282-29.231,37.066-35.906,60.118
		c-10.091,34.849-4.551,71.251,16.121,100.856c18.05,25.85,46.774,40.027,78.281,40.029c13.574,0.001,26.398-2.124,37.345-10.208
		c11.905-8.825,17.976-22.215,19.639-37.151l2.425-95.228l120.947-64.736l-0.019,170.288c-0.002,17.147-1.886,33.135-3.974,49.945
		c-2.165,8.082-3.333,16.338-7.582,23.579c-10.607,18.075-28.193,30.575-48.438,36.084c-36.508,9.935-85.255,6.445-121.45-4.454
		c-34.161-10.287-66.349-26.91-91.076-52.922c-65.438-68.837-55.553-172.835,11.364-237.36
		c90.411-87.18,255.713-99.691,373.213-77.758c62.122,11.596,127.013,37.351,171.16,83.509
		c61.785,64.6,69.022,164.239,5.958,231.329c-21.725,23.112-49.543,38.65-79.322,49.289c-39.402,14.077-93.787,19.495-134.144,8.178
		c-19.746-5.537-37.188-17.853-47.588-35.709c-11.049-18.971-11.511-63.78-11.991-86.453l0.116-102.43l0.289-55.04l120.799,64.692
		l2.769,96.679c0.408,14.254,8.459,26.82,18.711,35.398c11.139,8.174,23.567,10.363,37.128,10.474
		c32.785,0.268,62.442-14.872,80.547-42.18c19.691-29.699,24.586-65.632,14.243-99.994
		C969.903,148.527,928.557,113.876,884.422,92.472z"/>
</g>
</svg>
