<?xml version="1.0" encoding="utf-8"?>
<svg version="1.1" id="Layer_1" xmlns="http://www.w3.org/2000/svg" xmlns:xlink="http://www.w3.org/1999/xlink" x="0px" y="0px"
	 viewBox="0 0 529.639 529.694" style="enable-background:new 0 0 529.639 529.694;" xml:space="preserve">
<g>
	<path style="fill:#B7B7B7;" d="M529.639,264.847c0,146.271-118.564,264.847-264.819,264.847S0,411.118,0,264.847
		S118.564,0,264.819,0S529.639,118.576,529.639,264.847z M227.006,242.826l30.273-216.141
		C129.691,30.859,28.598,134.523,26.557,261.581c-0.441,39.614,8.75,79.088,28.338,115.709L227.006,242.826z M474.71,377.253
		c21.562-40.113,30.424-83.557,27.949-126.665C495.065,127.659,395.265,30.631,272.322,26.655l30.413,216.295L474.71,377.253z
		 M467.017,390.443l-202.215-81.825L62.549,390.505c44.165,70.993,120.953,112.685,202.567,112.638
		C346.728,503.095,423.734,460.732,467.017,390.443z"/>
</g>
</svg>
