<?xml version="1.0" encoding="utf-8"?>
<svg version="1.1" id="Layer_1" xmlns="http://www.w3.org/2000/svg" xmlns:xlink="http://www.w3.org/1999/xlink" x="0px" y="0px"
	 viewBox="0 0 738.035 181.27" style="enable-background:new 0 0 738.035 181.27;" xml:space="preserve">
<path style="fill:#B7B7B7;" d="M166.029,166.177h-45.29v-55.959L75.449,64.941V15.093h90.528L166.029,166.177z M15.079,166.177
	V15.093h45.237v56.066l45.29,45.278v49.688L15.079,166.177z M181.109,0H0v181.27h181.109V0z"/>
<path style="fill:#B7B7B7;" d="M322.467,61.226l-46.936,48.997h44.494v9.991h-69.13v-0.212l46.936-48.945h-44.335v-9.991h69.024
	v0.159H322.467z"/>
<path style="fill:#B7B7B7;" d="M615.965,120.267l-43.379-30.557v30.557h-12.105V61.067h12.105v28.484l42.158-28.484h18.636
	l-42.37,28.272l43.804,30.876h-18.849V120.267z"/>
<path style="fill:#B7B7B7;" d="M738.035,120.267L705.172,98.16h6.103c11.574,0,21.715-6.643,21.715-17.909v-0.797
	c0-11.479-10.245-18.387-22.141-18.387H662.69v59.148h12.109V89.339l45.398,30.876h17.838V120.267z M674.748,71.111h36.314
	c4.516,0,8.709,1.807,9.877,5.474c0.052,0.637,0.213,2.179,0.213,3.72c0,1.594-0.103,3.135-0.213,3.72
	c-1.219,3.242-5.361,5.208-9.877,5.208h-36.314V71.111z"/>
<path style="fill:#B7B7B7;" d="M420.675,109.745v10.522h-61.431V61.067h61.431v10.523h-49.697V84.29h47.096v10.523h-47.096v14.88
	h49.697V109.745z"/>
<path style="fill:#B7B7B7;" d="M521.3,109.745v10.522h-61.432V61.067H521.3v10.523h-49.697V84.29h47.096v10.523h-47.096v14.88H521.3
	V109.745z"/>
</svg>
